<svg xmlns="http://www.w3.org/2000/svg" width="3000" height="3001" fill="none" viewBox="0 0 3000 3001" id="mobile-payment"><g clip-path="url(#clip0_101_35753)"><path fill="#F1F1F1" d="M938.882 297.908C938.882 235.554 989.431 185.005 1051.79 185.005H2079.58C2141.93 185.005 2192.48 235.554 2192.48 297.908V2376.63C2192.48 2438.98 2141.93 2489.53 2079.58 2489.53H1051.79C989.431 2489.53 938.882 2438.98 938.882 2376.63V297.908Z"></path><path fill="#F15846" d="M931.375 1828.95C931.375 1963.69 822.148 2072.91 687.41 2072.91C552.673 2072.91 443.446 1963.69 443.446 1828.95C443.446 1694.21 552.673 1584.98 687.41 1584.98C822.148 1584.98 931.375 1694.21 931.375 1828.95Z"></path><path fill="#53B3CC" d="M465.966 536.851C465.966 514.581 484.019 496.528 506.289 496.528H1048.69C1070.96 496.528 1089.01 514.581 1089.01 536.851V1259.41C1089.01 1281.68 1070.96 1299.73 1048.69 1299.73H506.289C484.019 1299.73 465.966 1281.68 465.966 1259.41V536.851Z"></path><path fill="#46A4BC" d="M563.555 496.528H691.167V1299.73H563.555V496.528Z"></path><path fill="#E5E5E5" d="M833.792 196.569C833.792 134.215 884.34 83.666 946.695 83.666H1974.49C2036.84 83.666 2087.39 134.215 2087.39 196.569V2275.29C2087.39 2337.64 2036.84 2388.19 1974.49 2388.19H946.695C884.34 2388.19 833.792 2337.64 833.792 2275.29V196.569Z"></path><path fill="#3E3D3D" fill-rule="evenodd" d="M825.727 196.569C825.727 129.761 879.886 75.6014 946.695 75.6014H1974.49C2041.3 75.6014 2095.46 129.761 2095.46 196.569V2275.29C2095.46 2342.1 2041.3 2396.25 1974.49 2396.25H946.695C879.886 2396.25 825.727 2342.1 825.727 2275.29V196.569ZM946.695 91.7305C888.794 91.7305 841.856 138.668 841.856 196.569V2275.29C841.856 2333.19 888.794 2380.13 946.695 2380.13H1974.49C2032.39 2380.13 2079.33 2333.19 2079.33 2275.29V196.569C2079.33 138.668 2032.39 91.7305 1974.49 91.7305H946.695Z" clip-rule="evenodd"></path><path fill="#fff" d="M878.827 209.351C878.827 164.812 914.933 128.705 959.473 128.705H1961.7C2006.24 128.705 2042.35 164.812 2042.35 209.351V2209.96C2042.35 2254.5 2006.24 2290.6 1961.7 2290.6H959.472C914.933 2290.6 878.827 2254.5 878.827 2209.96V209.351Z"></path><path fill="#E5E5E5" d="M1209.12 128.705H1734.58L1718.07 174.118C1709.95 196.427 1688.75 211.278 1665.01 211.278H1278.68C1254.95 211.278 1233.74 196.427 1225.63 174.118L1209.12 128.705Z"></path><path fill="#F1F1F1" fill-rule="evenodd" d="M1847.18 399.501H1089.01V383.372H1847.18V399.501ZM1434.32 572.152H1089.01V556.023H1434.32V572.152Z" clip-rule="evenodd"></path><path fill="#F15846" d="M1089.01 1202.15H1441.82V1517.43H1089.01V1202.15zM1089.01 946.924H1441.82V1029.5H1089.01V946.924zM1089.01 736.74H1441.82V819.312H1089.01V736.74z"></path><path fill="#53B3CC" d="M1111.53 1822.71C1111.53 1782.63 1144.03 1750.13 1184.11 1750.13H1737.07C1777.15 1750.13 1809.65 1782.63 1809.65 1822.71V2000.33C1809.65 2040.42 1777.15 2072.91 1737.07 2072.91H1184.11C1144.03 2072.91 1111.53 2040.42 1111.53 2000.33V1822.71Z"></path><path fill="#fff" d="M1284.19 581.891C1284.19 559.621 1302.24 541.568 1324.51 541.568H2339.83C2362.1 541.568 2380.15 559.621 2380.15 581.891V1552.17C2380.15 1574.44 2362.1 1592.49 2339.83 1592.49H1324.51C1302.24 1592.49 1284.19 1574.44 1284.19 1552.17V581.891Z"></path><path fill="#3E3D3D" fill-rule="evenodd" d="M1276.12 581.891C1276.12 555.167 1297.79 533.504 1324.51 533.504H2339.83C2366.55 533.504 2388.21 555.167 2388.21 581.891V1552.17C2388.21 1578.89 2366.55 1600.56 2339.83 1600.56H1324.51C1297.79 1600.56 1276.12 1578.89 1276.12 1552.17V581.891ZM1324.51 549.633C1306.69 549.633 1292.25 564.075 1292.25 581.891V1552.17C1292.25 1569.98 1306.69 1584.43 1324.51 1584.43H2339.83C2357.64 1584.43 2372.09 1569.98 2372.09 1552.17V581.891C2372.09 564.075 2357.64 549.633 2339.83 549.633H1324.51Z" clip-rule="evenodd"></path><path fill="#53B3CC" d="M2154.95 1033.25C2154.95 1213.59 2008.75 1359.79 1828.41 1359.79C1648.07 1359.79 1501.87 1213.59 1501.87 1033.25C1501.87 852.909 1648.07 706.713 1828.41 706.713C2008.75 706.713 2154.95 852.909 2154.95 1033.25Z"></path><path fill="#FAC22F" d="M2710.44 1904.02C2710.44 2018.02 2618.02 2110.45 2504.01 2110.45C2390 2110.45 2297.58 2018.02 2297.58 1904.02C2297.58 1790.01 2390 1697.58 2504.01 1697.58C2618.02 1697.58 2710.44 1790.01 2710.44 1904.02Z"></path><path fill="#F1F1F1" fill-rule="evenodd" d="M848.801 2531.37H499.744V2515.24H848.801V2531.37ZM1250.4 2704.02H499.744V2687.9H1250.4V2704.02Z" clip-rule="evenodd"></path><path fill="#FAC22F" fill-rule="evenodd" d="M2430.22 219.342H2297.58V203.213H2430.22V219.342ZM2582.83 391.994H2297.58V375.865H2582.83V391.994Z" clip-rule="evenodd"></path><path fill="#E5E5E5" fill-rule="evenodd" d="M2559.75 1506.17V627.894H2575.88V1506.17H2559.75Z" clip-rule="evenodd"></path><path fill="#fff" fill-rule="evenodd" d="M2665.27 1871.7L2423.81 2021.47 2341.38 1892.98 2388.89 1862.5 2441.3 1944.19 2635.51 1823.73 2665.27 1871.7zM1832.17 795.119C1845.53 795.119 1856.36 805.95 1856.36 819.312V843.255H1857.04C1914.71 843.255 1961.46 890.005 1961.46 947.675H1913.07C1913.07 916.729 1887.98 891.642 1857.04 891.642H1812.65C1778.75 891.642 1751.27 919.123 1751.27 953.023 1751.27 986.924 1778.75 1014.41 1812.65 1014.41H1857.04C1914.71 1014.41 1961.46 1061.16 1961.46 1118.83 1961.46 1176.5 1914.71 1223.25 1857.04 1223.25H1856.36V1247.19C1856.36 1260.55 1845.53 1271.38 1832.17 1271.38 1818.81 1271.38 1807.98 1260.55 1807.98 1247.19V1223.25H1796.61C1744.85 1223.25 1702.88 1181.28 1702.88 1129.52H1751.27C1751.27 1154.56 1771.57 1174.86 1796.61 1174.86H1857.04C1887.98 1174.86 1913.07 1149.77 1913.07 1118.83 1913.07 1087.88 1887.98 1062.79 1857.04 1062.79H1812.65C1752.03 1062.79 1702.88 1013.65 1702.88 953.023 1702.88 893.966 1749.52 845.802 1807.98 843.352V819.312C1807.98 805.95 1818.81 795.119 1832.17 795.119zM691.163 1654.9C702.297 1654.9 711.324 1663.93 711.324 1675.06V1689.58C753.031 1691.05 786.39 1725.33 786.39 1767.39H746.067C746.067 1746.66 729.258 1729.85 708.522 1729.85H677.651C654.79 1729.85 636.258 1748.38 636.258 1771.24 636.258 1794.1 654.79 1812.63 677.651 1812.63H708.522C751.527 1812.63 786.39 1847.5 786.39 1890.5 786.39 1932.57 753.031 1966.85 711.324 1968.32V1982.83C711.324 1993.97 702.297 2003 691.163 2003 680.028 2003 671.001 1993.97 671.001 1982.83V1968.37H666.109C627.353 1968.37 595.935 1936.95 595.935 1898.2H636.258C636.258 1914.68 649.623 1928.05 666.109 1928.05H708.522C729.258 1928.05 746.067 1911.24 746.067 1890.5 746.067 1869.77 729.258 1852.96 708.522 1852.96H677.651C632.521 1852.96 595.935 1816.37 595.935 1771.24 595.935 1728.35 628.981 1693.18 671.001 1689.79V1675.06C671.001 1663.93 680.028 1654.9 691.163 1654.9z" clip-rule="evenodd"></path><path fill="#EFCB96" d="M1741.29 2866.17C1868.27 2906.69 1866.71 2845.21 1867.58 2879.87L2142.22 2879.87L2473.98 2879.87C2449.96 2825.01 2403.12 2617 2391.83 2462.91C2377.72 2270.3 2227.33 2060.49 2142.22 1990.86C2074.13 1935.15 2017.08 1966.43 1997.07 1989.04C1954.04 1947.8 1892.81 1976.67 1867.58 1996.26C1797.82 1972.39 1744.88 2027.9 1727.13 2058.65L1522.56 1726.68C1516.21 1716.37 1503.21 1712.35 1492.14 1717.26L1391.63 1761.91C1380.02 1767.07 1374.38 1780.32 1378.71 1792.27L1653.02 2548.76L1265.54 2477.92C1249.49 2474.98 1233.77 2484.5 1228.93 2500.09L1197.16 2602.47C1192.4 2617.81 1199.62 2634.3 1214.16 2641.13C1354.78 2707.09 1621.92 2828.08 1741.29 2866.17Z"></path><path fill="#3E3D3D" fill-rule="evenodd" d="M0 2883.63C0 2879.17 3.61061 2875.56 8.06452 2875.56H2991.94C2996.39 2875.56 3000 2879.17 3000 2883.63C3000 2888.08 2996.39 2891.69 2991.94 2891.69H8.06452C3.61061 2891.69 0 2888.08 0 2883.63Z" clip-rule="evenodd"></path></g><defs><clipPath id="clip0_101_35753"><rect width="3000" height="3000" fill="#fff" transform="translate(0 .236)"></rect></clipPath></defs></svg>